<?xml version="1.0" standalone="no"?>
<!DOCTYPE svg PUBLIC "-//W3C//DTD SVG 20010904//EN"
 "http://www.w3.org/TR/2001/REC-SVG-20010904/DTD/svg10.dtd">
<svg version="1.0" xmlns="http://www.w3.org/2000/svg"
 width="832.000000pt" height="127.000000pt" viewBox="0 0 832.000000 127.000000"
 preserveAspectRatio="xMidYMid meet">
<metadata>
Created by potrace 1.16, written by Peter Selinger 2001-2019
</metadata>
<g transform="translate(0.000000,127.000000) scale(0.100000,-0.100000)"
fill="#e8e0d4" stroke="none">
<path d="M89 1093 c0 -27 -4 -70 -9 -98 -10 -60 2 -79 24 -37 36 69 124 107
233 100 l48 -3 0 -341 c0 -319 -1 -343 -19 -362 -10 -12 -27 -22 -39 -24 -11
-2 -22 -9 -25 -15 -3 -10 31 -13 147 -13 151 0 186 9 122 31 -16 6 -34 22 -40
37 -8 18 -10 132 -9 357 l3 330 75 -1 c87 0 143 -24 184 -76 14 -18 28 -30 31
-26 3 3 3 47 -1 97 l-7 91 -358 0 -359 0 -1 -47z"/>
<path d="M5970 1106 c-64 -18 -106 -42 -157 -89 -155 -143 -192 -356 -96 -556
43 -91 106 -154 193 -195 59 -28 74 -31 162 -31 92 0 98 -1 110 -23 25 -47
126 -130 185 -152 84 -32 185 -25 271 19 64 32 86 61 35 45 -16 -5 -59 -9 -98
-9 -60 1 -79 5 -133 35 -38 20 -84 56 -113 89 l-49 55 48 51 c66 67 88 102
117 179 94 250 -25 520 -257 582 -64 17 -157 17 -218 0z m198 -75 c88 -45 148
-151 162 -284 16 -156 -16 -289 -96 -396 -2 -2 -22 13 -45 33 -79 67 -197 94
-274 61 l-35 -14 -19 37 c-51 99 -66 258 -37 370 48 178 202 265 344 193z
m-139 -636 c16 -8 48 -36 71 -62 42 -48 42 -48 17 -51 -47 -6 -105 18 -156 64
-28 25 -49 50 -45 55 8 14 82 11 113 -6z"/>
<path d="M2163 1053 c-51 -2 -93 -7 -93 -12 0 -4 18 -13 40 -20 70 -21 70 -20
70 -347 0 -280 -1 -292 -21 -318 -11 -14 -29 -26 -40 -26 -10 0 -19 -4 -19
-10 0 -6 48 -10 123 -11 67 0 130 -2 139 -4 33 -6 29 14 -6 29 -19 8 -39 23
-45 34 -6 12 -11 73 -11 137 l0 116 42 -3 c42 -3 44 -5 82 -73 120 -216 151
-258 229 -318 55 -42 115 -59 192 -55 l60 3 -70 47 c-39 26 -79 56 -89 67
l-19 21 86 0 c51 0 87 4 87 10 0 6 -8 10 -18 10 -43 0 -53 42 -26 110 l16 40
100 0 99 0 15 -37 c9 -20 18 -51 21 -69 4 -26 2 -33 -16 -39 -49 -15 -14 -25
94 -25 106 0 144 10 96 25 -11 3 -24 12 -30 19 -7 8 -61 139 -121 292 -61 153
-112 279 -113 281 -4 3 -119 -19 -126 -24 -3 -2 6 -11 18 -20 35 -24 25 -71
-68 -304 -72 -182 -108 -249 -134 -249 -14 0 -187 285 -187 309 0 6 6 11 14
11 21 0 74 47 91 81 66 127 19 270 -104 314 -43 15 -111 16 -358 8z m304 -79
c86 -63 85 -223 -2 -280 -15 -10 -54 -19 -95 -22 l-70 -5 0 168 0 167 70 -4
c49 -2 77 -9 97 -24z m545 -326 c21 -56 36 -103 33 -106 -5 -6 -147 -3 -153 3
-5 5 71 205 78 205 3 0 22 -46 42 -102z"/>
<path d="M4871 951 c-26 -26 -27 -53 -1 -76 27 -24 25 -47 -5 -75 -32 -30 -18
-47 23 -26 94 48 113 170 30 191 -19 5 -32 1 -47 -14z"/>
<path d="M5102 910 c-47 -29 -72 -76 -72 -135 0 -76 24 -112 116 -172 109 -72
134 -102 134 -159 0 -103 -109 -128 -186 -42 -12 12 -31 42 -43 66 -25 50 -46
56 -37 11 3 -17 6 -65 6 -106 l0 -75 25 6 c14 4 52 1 83 -5 111 -23 190 8 232
92 23 45 26 116 6 162 -16 39 -71 89 -129 118 -73 37 -106 67 -112 103 -11 54
25 105 73 106 38 0 99 -37 122 -75 12 -19 25 -35 29 -35 7 0 2 141 -5 149 -2
2 -10 -2 -18 -8 -11 -9 -22 -9 -51 4 -53 21 -133 19 -173 -5z"/>
<path d="M4220 905 c1 -5 15 -19 32 -30 45 -28 50 -63 46 -301 -3 -182 -5
-204 -22 -223 -11 -12 -25 -21 -33 -21 -7 0 -13 -4 -13 -10 0 -6 40 -10 100
-10 100 0 120 6 78 25 -41 18 -48 49 -48 233 0 105 4 171 9 167 6 -3 79 -96
163 -206 84 -111 158 -207 164 -215 6 -8 18 -14 27 -14 14 0 16 33 19 281 l3
281 30 24 30 24 -102 0 c-94 0 -132 -10 -84 -23 10 -2 27 -17 37 -33 16 -24
19 -52 22 -179 l2 -150 -36 40 c-19 22 -87 108 -151 192 l-115 152 -79 3 c-48
2 -79 -1 -79 -7z"/>
<path d="M7943 912 c-58 -1 -103 -7 -103 -12 0 -6 6 -10 13 -10 8 0 21 -8 30
-18 25 -27 25 -486 1 -520 -8 -12 -22 -22 -30 -22 -9 0 -14 -6 -11 -12 3 -10
48 -12 187 -11 101 2 185 5 187 7 10 9 39 177 32 182 -5 3 -17 -12 -28 -33
-35 -69 -63 -87 -141 -91 l-70 -4 0 244 c0 225 2 246 18 261 10 10 26 17 36
17 21 0 16 23 -5 24 -7 1 -60 0 -116 -2z"/>
<path d="M800 900 c0 -5 11 -12 25 -16 14 -3 30 -14 35 -24 14 -26 13 -476 -1
-501 -5 -11 -22 -24 -36 -30 -51 -19 -9 -30 107 -27 80 2 115 7 118 16 2 7 -5
12 -16 12 -44 0 -52 24 -52 146 l0 115 117 -3 117 -3 3 -90 c3 -111 -5 -146
-40 -163 -15 -7 -25 -17 -22 -22 9 -14 228 -7 233 8 2 6 -3 12 -12 12 -9 0
-25 9 -36 20 -19 19 -20 33 -20 250 0 244 5 276 47 286 55 14 15 24 -97 24
-66 0 -120 -4 -120 -8 0 -5 11 -14 25 -20 35 -16 45 -49 45 -143 l0 -79 -120
0 -121 0 3 102 c3 101 3 103 31 116 51 24 29 32 -93 32 -72 0 -120 -4 -120
-10z"/>
<path d="M1435 900 c-3 -5 1 -10 9 -10 9 0 25 -9 36 -20 19 -19 20 -33 20
-258 0 -199 -3 -241 -16 -260 -8 -12 -22 -22 -30 -22 -8 0 -14 -4 -14 -10 0
-10 308 -18 374 -10 38 5 40 7 52 51 30 118 26 157 -9 84 -27 -56 -68 -75
-164 -75 l-83 0 0 115 0 115 53 0 c63 0 101 -18 105 -48 2 -12 8 -22 13 -22 5
0 9 43 9 95 0 57 -4 95 -10 95 -5 0 -10 -6 -10 -14 0 -27 -42 -46 -102 -46
l-58 0 0 95 0 95 59 0 c73 0 106 -12 149 -53 36 -35 37 -34 26 61 l-7 52 -198
0 c-121 0 -200 -4 -204 -10z"/>
<path d="M3140 900 c0 -5 9 -10 19 -10 37 0 67 -58 165 -323 96 -259 101 -268
125 -265 24 3 31 19 107 238 100 290 116 327 148 342 47 21 27 28 -79 28 -63
0 -105 -4 -105 -10 0 -5 6 -10 13 -10 31 0 50 -38 45 -87 -4 -42 -91 -306
-107 -325 -8 -10 -131 342 -131 375 0 17 7 28 20 32 49 16 11 25 -100 25 -73
0 -120 -4 -120 -10z"/>
<path d="M3750 902 c0 -4 14 -13 30 -19 l30 -11 1 -119 c1 -237 -2 -384 -8
-399 -3 -8 -16 -17 -29 -20 -52 -13 -19 -22 89 -26 61 -1 153 -2 203 0 l92 3
15 57 c24 91 28 112 20 112 -5 0 -18 -18 -30 -39 -30 -53 -73 -71 -167 -71
l-76 0 0 115 0 115 60 0 c62 0 100 -21 100 -55 0 -8 5 -15 10 -15 6 0 10 40
10 100 0 60 -4 100 -10 100 -5 0 -10 -7 -10 -15 0 -34 -38 -55 -100 -55 l-60
0 0 95 0 95 60 0 c72 0 119 -17 148 -55 12 -16 24 -26 27 -23 3 2 2 34 -2 71
l-6 67 -198 0 c-110 0 -199 -4 -199 -8z"/>
<path d="M6500 900 c0 -5 6 -10 13 -10 8 0 21 -8 30 -18 15 -16 17 -45 17
-203 0 -102 5 -202 11 -224 24 -86 95 -142 194 -152 94 -10 169 29 207 106 21
42 23 65 28 249 l5 204 28 23 c15 13 27 27 27 30 0 3 -43 5 -95 5 -52 0 -95
-3 -95 -7 0 -5 13 -15 29 -24 37 -21 41 -46 41 -233 0 -173 -9 -215 -51 -250
-59 -50 -163 -26 -199 45 -18 34 -20 59 -20 221 0 150 3 188 16 206 8 12 22
22 30 22 8 0 14 5 14 10 0 6 -45 10 -115 10 -70 0 -115 -4 -115 -10z"/>
<path d="M7100 900 c0 -5 6 -10 13 -10 8 0 21 -8 30 -18 15 -16 17 -50 17
-264 0 -225 -2 -246 -18 -261 -10 -10 -24 -17 -30 -17 -7 0 -12 -4 -12 -9 0
-11 197 -20 225 -10 18 6 18 8 -7 17 -15 6 -32 20 -37 31 -7 12 -11 108 -11
255 0 223 1 237 20 256 11 11 25 20 30 20 6 0 10 5 10 10 0 6 -45 10 -115 10
-70 0 -115 -4 -115 -10z"/>
<path d="M7380 900 c0 -5 6 -10 13 -10 8 0 21 -8 30 -18 15 -16 17 -50 17
-265 0 -210 -2 -248 -16 -261 -8 -9 -22 -16 -31 -16 -8 0 -13 -5 -11 -11 4
-12 311 -23 359 -13 24 5 28 12 43 87 19 95 19 97 7 97 -5 0 -14 -13 -21 -29
-6 -16 -24 -41 -40 -56 -25 -24 -39 -29 -105 -33 l-75 -5 0 245 c0 225 2 246
18 261 10 10 24 17 30 17 7 0 12 5 12 10 0 6 -45 10 -115 10 -70 0 -115 -4
-115 -10z"/>
</g>
</svg>
